<svg width="24" height="24" viewBox="0 0 6.3499999 6.3500002" xmlns="http://www.w3.org/2000/svg">
  <g transform="translate(0,-290.64999)">
      <circle
         r="2.4537055"
         cy="293.82498"
         cx="3.175"
         style="fill:none;stroke:#fff;stroke-width:0.38425568;" />
      <path
         d="m 2.7121962,291.35233 0.5274081,0.61816 -0.5249656,0.61817 0.5254558,0.64474 -0.5230133,0.59159 0.5235032,0.60044 -0.5210607,0.63588 0.5215507,0.65951 -0.5191082,0.57682 0.049561,-2.4e-4 0.049561,-2.5e-4 0.049561,-2.4e-4 0.049561,-2.4e-4 0.049561,-2.5e-4 0.049561,-2.4e-4 0.049561,-2.4e-4 0.049561,-2.5e-4 0.5193496,-0.57658 -0.5213057,-0.65926 0.5213057,-0.63563 -0.5232582,-0.60021 0.5232582,-0.59134 -0.5252107,-0.6445 0.5252106,-0.61792 -0.527163,-0.61792 h -0.049806 -0.049806 -0.049806 -0.049805 -0.049806 -0.049806 -0.049806 z"
         style="fill:#fff;" />
  </g>
</svg>
