<svg width="24" height="24" viewBox="0 0 6.3499999 6.3500002" xmlns="http://www.w3.org/2000/svg">
  <g transform="translate(0,-290.64999)">
      <circle
         r="2.4537055"
         cy="293.82498"
         cx="3.175"
         style="fill:none;stroke:#fff;stroke-width:0.38425568;" />
      <g transform="translate(-0.01059383,290.6443)">
        <path
           style="fill:#fff"
           d="m 11.279297,2.5019531 -0.01953,6.3886719 a 3.2038257,3.2038255 0 0 1 0.757812,-0.09375 3.2038257,3.2038255 0 0 1 0.740234,0.089844 l 0.01953,-6.3847657 z m -0.03906,12.6015629 -0.01953,6.429687 1.498047,0.0078 0.01953,-6.423828 a 3.2038257,3.2038255 0 0 1 -0.720703,0.08594 3.2038257,3.2038255 0 0 1 -0.777344,-0.09961 z"
           transform="scale(0.26458334)" />
        <path
           style="fill:#fff"
           d="m 21.621094,11.234375 -6.492188,0.0098 A 3.2038257,3.2038255 0 0 1 15.222656,12 a 3.2038257,3.2038255 0 0 1 -0.0918,0.744141 l 6.490235,-0.0098 z m -12.714844,0.02148 -6.4472656,0.0098 0.00586,1.498047 6.4433593,-0.0098 A 3.2038257,3.2038255 0 0 1 8.8144531,12 3.2038257,3.2038255 0 0 1 8.90625,11.255859 Z"
           transform="scale(0.26458334)" />
        <path
           style="fill:#fff"
           d="M 6.1425781,4.5253906 5.0351562,5.5371094 9.3457031,10.240234 A 3.2038257,3.2038255 0 0 1 10.439453,9.2167969 Z M 14.65625,13.816406 a 3.2038257,3.2038255 0 0 1 -1.119141,1 l 4.253907,4.642578 1.099609,-1.019531 z"
           transform="scale(0.26458334)" />
        <path
           style="fill:#fff"
           d="M 18.330078,5.0195312 13.785156,9.328125 a 3.2038257,3.2038255 0 0 1 1.021485,1.101563 l 4.55664,-4.3183599 z m -9.0703124,8.5996098 -4.34375,4.11914 1.0273438,1.09375 4.3574216,-4.130859 A 3.2038257,3.2038255 0 0 1 9.2597656,13.619141 Z"
           transform="scale(0.26458334)" />
      </g>
  </g>
</svg>
