<?xml version="1.0" encoding="UTF-8"?>
<svg width="512pt" height="512pt" version="1.0" viewBox="0 0 512 512" xmlns="http://www.w3.org/2000/svg">
<rect x="9.8842" y="17.792" width="494.21" height="483.67" fill="#fff" stroke="#000" stroke-linecap="round" stroke-linejoin="round" stroke-width="17.008"/>
<g transform="matrix(.08763 0 0 -.092346 32.302 496.42)">
<path d="m1549 4955c-31-17-53-65-47-99 3-16 786-1426 812-1462 1-1 33 6 71 16 94 25 256 25 350 0 39-10 70-17 71-16 26 36 809 1446 812 1462 7 35-17 83-49 99-42 22-1980 22-2020 0z"/>
<path d="m800 4538c-43-11-105-70-217-205-635-768-762-1844-323-2738 137-280 272-468 494-691 221-220 412-357 681-489 188-92 309-137 500-185 500-126 1002-102 1490 71 149 53 407 182 540 271 570 379 972 974 1104 1633 38 188 46 277 46 505 0 235-8 318-51 530-74 362-270 776-505 1067-105 129-198 221-233 229-119 27-216-62-191-176 4-19 40-69 92-127 164-184 274-348 373-556 255-533 288-1155 90-1722-72-208-221-472-369-658-303-380-751-666-1222-780-201-49-309-61-539-61-235 0-341 12-550 64-450 112-877 378-1172 730-678 809-717 1954-97 2796 37 50 105 135 152 187 52 58 88 108 92 127 24 110-75 206-185 178z"/>
<path d="m1233 3650c-84-51-232-368-285-614-19-87-22-131-22-321s3-234 22-319c150-674 629-1155 1292-1297 91-20 134-23 320-23 241 0 330 13 529 80 554 184 977 678 1087 1269 28 150 26 473-4 608-56 255-200 565-285 617-71 44-172 15-209-60-25-50-22-90 12-151 158-287 210-467 210-724 0-652-472-1217-1108-1326-824-140-1572 491-1572 1325 0 260 51 436 210 725 34 61 37 101 12 151-37 75-138 104-209 60z"/>
<path d="m2427 3110c-78-28-122-57-180-119-72-77-100-146-105-257-6-139 31-234 125-325 96-92 181-123 317-117 109 6 180 34 251 99 106 98 149 202 143 344-3 75-9 101-36 156-39 81-128 169-209 206-80 37-221 43-306 13z"/>
</g>
</svg>
