<?xml version="1.0" encoding="UTF-8" standalone="no"?>
<svg
   xmlns:dc="http://purl.org/dc/elements/1.1/"
   xmlns:cc="http://creativecommons.org/ns#"
   xmlns:rdf="http://www.w3.org/1999/02/22-rdf-syntax-ns#"
   xmlns:svg="http://www.w3.org/2000/svg"
   xmlns="http://www.w3.org/2000/svg"
   xmlns:sodipodi="http://sodipodi.sourceforge.net/DTD/sodipodi-0.dtd"
   xmlns:inkscape="http://www.inkscape.org/namespaces/inkscape"
   height="512pt"
   viewBox="0 0 512 512.001"
   width="512pt"
   version="1.1"
   id="svg12"
   sodipodi:docname="solar-system.svg"
   inkscape:version="0.92.4 (5da689c313, 2019-01-14)">
  <metadata
     id="metadata18">
    <rdf:RDF>
      <cc:Work
         rdf:about="">
        <dc:format>image/svg+xml</dc:format>
        <dc:type
           rdf:resource="http://purl.org/dc/dcmitype/StillImage" />
      </cc:Work>
    </rdf:RDF>
  </metadata>
  <defs
     id="defs16" />
  <sodipodi:namedview
     pagecolor="#ffffff"
     bordercolor="#666666"
     borderopacity="1"
     objecttolerance="10"
     gridtolerance="10"
     guidetolerance="10"
     inkscape:pageopacity="0"
     inkscape:pageshadow="2"
     inkscape:window-width="1920"
     inkscape:window-height="1001"
     id="namedview14"
     showgrid="false"
     inkscape:zoom="0.9777961"
     inkscape:cx="404.92829"
     inkscape:cy="294.7872"
     inkscape:window-x="-9"
     inkscape:window-y="-9"
     inkscape:window-maximized="1"
     inkscape:current-layer="svg12" />
  <path
     d="m449.511719 135.191406c10.121093-16.03125 8.203125-37.539062-5.75-51.5-7.839844-7.839844-18.253907-12.160156-29.335938-12.164062h-.011719c-6.496093 0-12.765624 1.484375-18.414062 4.289062-42.011719-32.78125-94.027344-49.734375-147.742188-47.9375-57.988281 1.945313-112.527343 25.628906-153.574218 66.691406-41.042969 41.058594-64.71875 95.617188-66.660156 153.621094-1.800782 53.746094 15.152343 105.78125 47.933593 147.804688-7.660156 15.511718-5.042969 34.859375 7.851563 47.757812 7.835937 7.839844 18.253906 12.15625 29.332031 12.160156h.015625c7.964844 0 15.585938-2.230468 22.152344-6.394531 36.105468 22.523438 78.054687 34.472657 120.71875 34.472657 6.3125 0 12.644531-.261719 18.972656-.789063 53.605469-4.472656 104.105469-27.921875 142.195312-66.023437 38.113282-38.132813 61.558594-88.683594 66.003907-142.347657 4.070312-49.078125-7.855469-98.210937-33.6875-139.640625zm3.789062 137.164063c-3.863281 46.597656-24.21875 90.5-57.324219 123.617187-33.078124 33.089844-76.929687 53.453125-123.472656 57.335938-41.859375 3.492187-83.769531-6.417969-119.332031-28.023438 3.734375-13.871094.167969-29.320312-10.703125-40.195312-7.835938-7.835938-18.253906-12.15625-29.332031-12.160156h-.015625c-5.191406 0-10.234375.949218-14.9375 2.761718-27.511719-36.160156-41.710938-80.601562-40.175782-126.496094 1.6875-50.375 22.25-97.757812 57.898438-133.417968 35.644531-35.65625 83.007812-56.226563 133.359375-57.914063 45.878906-1.527343 90.316406 12.671875 126.460937 40.207031-5.699218 14.84375-2.574218 32.332032 9.371094 44.28125 7.839844 7.839844 18.253906 12.160157 29.335938 12.164063h.015625c3.714843 0 7.355469-.488281 10.847656-1.429687 21.566406 35.546874 31.472656 77.421874 28.003906 119.269531zm0 0"
     id="path2" />
  <path
     d="m255.941406 104.832031c-83.257812 0-150.996094 67.757813-150.996094 151.042969s67.738282 151.042969 150.996094 151.042969c26.273438 0 51.746094-6.730469 74.351563-19.554688 6.34375 3.941407 13.820312 6.21875 21.816406 6.21875 22.871094 0 41.476563-18.617187 41.476563-41.5 0-8-2.273438-15.476562-6.207032-21.820312 12.824219-22.617188 19.554688-48.109375 19.554688-74.386719 0-83.285156-67.734375-151.042969-150.992188-151.042969zm107.191406 207.238281c-3.507812-.972656-7.207031-1.488281-11.023437-1.488281-22.867187 0-41.472656 18.617188-41.472656 41.5 0 3.816407.515625 7.515625 1.484375 11.027344-17.246094 9.066406-36.429688 13.808594-56.179688 13.808594-66.714844 0-120.992187-54.300781-120.992187-121.042969s54.277343-121.042969 120.992187-121.042969c66.710938 0 120.988282 54.300781 120.988282 121.042969 0 19.75-4.738282 38.941406-13.796876 56.195312zm0 0"
     id="path4" />
  <path
     d="m255.941406 184.027344c-39.585937 0-71.789062 32.230468-71.789062 71.847656s32.203125 71.847656 71.789062 71.847656c39.582032 0 71.789063-32.230468 71.789063-71.847656s-32.207031-71.847656-71.789063-71.847656zm0 0"
     id="path10" />
</svg>
