<?xml version="1.0" encoding="UTF-8" standalone="no"?>
<!-- Created with Inkscape (http://www.inkscape.org/) -->

<svg
   xmlns:dc="http://purl.org/dc/elements/1.1/"
   xmlns:cc="http://creativecommons.org/ns#"
   xmlns:rdf="http://www.w3.org/1999/02/22-rdf-syntax-ns#"
   xmlns:svg="http://www.w3.org/2000/svg"
   xmlns="http://www.w3.org/2000/svg"
   xmlns:sodipodi="http://sodipodi.sourceforge.net/DTD/sodipodi-0.dtd"
   xmlns:inkscape="http://www.inkscape.org/namespaces/inkscape"
   width="512"
   height="512"
   viewBox="0 0 135.46666 135.46667"
   version="1.1"
   id="svg3813"
   inkscape:version="0.92.4 (5da689c313, 2019-01-14)"
   sodipodi:docname="void.svg"
   inkscape:export-filename="C:\Users\igorosabel\Desktop\icon-512x512.png"
   inkscape:export-xdpi="96"
   inkscape:export-ydpi="96">
  <defs
     id="defs3807" />
  <sodipodi:namedview
     id="base"
     pagecolor="#ffffff"
     bordercolor="#666666"
     borderopacity="1.0"
     inkscape:pageopacity="0.0"
     inkscape:pageshadow="2"
     inkscape:zoom="0.70999998"
     inkscape:cx="16.32441"
     inkscape:cy="246.84567"
     inkscape:document-units="mm"
     inkscape:current-layer="layer1"
     showgrid="false"
     units="px"
     inkscape:window-width="1920"
     inkscape:window-height="1001"
     inkscape:window-x="-9"
     inkscape:window-y="-9"
     inkscape:window-maximized="1" />
  <metadata
     id="metadata3810">
    <rdf:RDF>
      <cc:Work
         rdf:about="">
        <dc:format>image/svg+xml</dc:format>
        <dc:type
           rdf:resource="http://purl.org/dc/dcmitype/StillImage" />
        <dc:title />
      </cc:Work>
    </rdf:RDF>
  </metadata>
  <g
     inkscape:label="Layer 1"
     inkscape:groupmode="layer"
     id="layer1"
     transform="translate(0,-161.53332)">
    <rect
       id="rect3815"
       width="124.31441"
       height="124.27776"
       x="5.5761251"
       y="167.12776"
       style="fill:#ffffff;fill-opacity:1;stroke:#000000;stroke-width:11.17056561;stroke-linejoin:round;stroke-miterlimit:4;stroke-dasharray:none;stroke-opacity:1"
       ry="23.397629"
       rx="0" />
    <g
       transform="matrix(0.24261535,0,0,0.24264299,30.233147,191.76228)"
       id="g10">
      <path
         inkscape:connector-curvature="0"
         d="M 30.078,172.934 C 53.773,138.826 67.711,116.852 77.873,100.613 38.82,104.067 1.387,152.661 1.387,152.661 l 25.777,25.776 c 0.748,-1.906 1.703,-3.757 2.914,-5.503 z"
         id="path2-8" />
      <path
         inkscape:connector-curvature="0"
         d="m 130.723,281.997 25.76,25.759 c 0,0 48.592,-37.43 52.047,-76.482 -16.234,10.158 -38.201,24.091 -72.32,47.792 -1.726,1.198 -3.566,2.176 -5.487,2.931 z"
         id="path4" />
      <path
         inkscape:connector-curvature="0"
         d="m 91.549,268.678 c -4.422,1.787 -8.768,3.686 -13.299,5.2 -12.102,4.045 -24.566,6.778 -37.203,8.522 -5.297,0.731 -10.643,1.351 -15.998,1.757 0.051,-0.661 0.1,-1.323 0.156,-1.983 1.105,-12.876 3.064,-25.685 6.229,-38.223 1.525,-6.051 3.471,-11.933 5.56,-17.807 1.299,-3.652 2.92,-7.147 4.555,-10.642 l -2.834,-2.832 c -6.303,4.234 -11.785,9.584 -16.437,15.637 -6.887,8.963 -12.049,19.117 -15.658,29.817 -3.877,11.489 -6.189,23.657 -6.549,35.787 -0.051,1.704 -0.168,3.445 0.096,5.136 0.34,2.184 1.299,4.251 2.74,5.926 1.426,1.657 3.303,2.908 5.383,3.579 1.746,0.563 3.502,0.573 5.313,0.559 11.012,-0.092 22.195,-2.005 32.736,-5.137 19.279,-5.728 38.742,-16.504 50.15,-33.532 l -2.758,-2.756 c -0.723,0.34 -1.448,0.673 -2.182,0.992 z"
         id="path6" />
      <path
         inkscape:connector-curvature="0"
         d="m 306.004,3.149 c 0,0 -0.002,-10e-4 -0.004,-0.003 -2.006,-2.005 -4.725,-3.128 -7.555,-3.128 -0.07,0 -0.141,0.001 -0.211,0.002 -34.41,0.675 -119.307,7.111 -164.393,52.199 -20.467,20.467 -27.119,31.121 -41.699,54.469 -10.5,16.81 -24.875,39.835 -51.147,77.649 -2.951,4.25 -2.438,10.003 1.221,13.66 l 68.928,68.929 c 2.068,2.069 4.807,3.133 7.564,3.133 2.119,0 4.248,-0.628 6.096,-1.911 37.828,-26.278 60.844,-40.65 77.648,-51.146 23.346,-14.579 34.002,-21.233 54.473,-41.702 45.166,-45.168 51.557,-130.009 52.205,-164.39 0.057,-2.903 -1.073,-5.705 -3.126,-7.761 z m -79.817,130.057 c -13.877,13.876 -36.373,13.876 -50.25,0 -13.879,-13.877 -13.877,-36.372 0.002,-50.248 13.875,-13.877 36.371,-13.879 50.248,-0.003 13.873,13.876 13.875,36.376 0,50.251 z"
         id="path8" />
    </g>
  </g>
</svg>
